<?xml version="1.0" encoding="UTF-8"?>
<!DOCTYPE svg PUBLIC "-//W3C//DTD SVG 1.1//EN" "http://www.w3.org/Graphics/SVG/1.1/DTD/svg11.dtd">
<svg xmlns="http://www.w3.org/2000/svg" version="1.1" width="698px" height="698px" style="shape-rendering:geometricPrecision; text-rendering:geometricPrecision; image-rendering:optimizeQuality; fill-rule:evenodd; clip-rule:evenodd" xmlns:xlink="http://www.w3.org/1999/xlink">
<g><path style="opacity:0.051" fill="#898989" d="M 322.5,-0.5 C 339.833,-0.5 357.167,-0.5 374.5,-0.5C 431.13,4.32064 483.796,21.4873 532.5,51C 537.015,54.0299 541.349,57.1966 545.5,60.5C 545.611,61.1174 545.944,61.6174 546.5,62C 544.866,62.4935 543.199,62.6602 541.5,62.5C 449.429,3.60883 350.763,-10.5578 245.5,20C 213.626,30.2714 183.96,44.7714 156.5,63.5C 154.708,62.6909 152.708,62.1909 150.5,62C 151.056,61.6174 151.389,61.1174 151.5,60.5C 188.335,34.4785 229.002,16.6451 273.5,7C 289.858,3.68842 306.191,1.18842 322.5,-0.5 Z"/></g>
<g><path style="opacity:1" fill="#f4f4f4" d="M 541.5,62.5 C 637.554,132.086 687.554,226.586 691.5,346C 688.881,455.226 645.881,544.56 562.5,614C 554.876,620.137 546.876,625.637 538.5,630.5C 533.623,613.742 526.289,598.075 516.5,583.5C 514.167,579.167 510.833,575.833 506.5,573.5C 499.708,568.439 492.375,564.439 484.5,561.5C 483.391,560.71 482.058,560.21 480.5,560C 453.169,559.5 425.835,559.333 398.5,559.5C 398.5,545.167 398.5,530.833 398.5,516.5C 398.5,515.833 398.5,515.167 398.5,514.5C 443.503,495.828 474.17,463.495 490.5,417.5C 494.285,411.595 497.285,405.261 499.5,398.5C 507.725,391.531 511.725,382.531 511.5,371.5C 511.157,366.445 510.49,361.445 509.5,356.5C 514.435,301.702 496.935,255.369 457,217.5C 457.741,197.16 448.575,183.326 429.5,176C 423.617,174.157 417.617,172.823 411.5,172C 423.047,157.919 425.547,142.419 419,125.5C 406.421,138.702 390.921,145.536 372.5,146C 366.833,146.667 361.167,146.667 355.5,146C 365.419,139.039 367.752,130.206 362.5,119.5C 354.856,128.983 345.856,136.817 335.5,143C 318.481,152.51 301.148,161.51 283.5,170C 266.025,179.641 252.359,193.141 242.5,210.5C 197.218,249.302 176.885,298.635 181.5,358.5C 179.799,368.287 180.299,377.954 183,387.5C 184.788,392.441 187.954,396.107 192.5,398.5C 194.989,405.472 197.989,412.139 201.5,418.5C 217.082,463.75 247.082,495.417 291.5,513.5C 292.499,528.819 292.833,544.152 292.5,559.5C 264.662,559.169 236.995,559.502 209.5,560.5C 206.241,561.664 202.907,562.664 199.5,563.5C 196.246,563.794 193.579,565.127 191.5,567.5C 188.796,567.67 187.129,569.003 186.5,571.5C 174.569,580.332 165.736,591.665 160,605.5C 157.368,612.571 154.868,619.571 152.5,626.5C 58.5349,556.916 10.2015,463.249 7.5,345.5C 10.4528,226.238 60.1195,132.238 156.5,63.5C 183.96,44.7714 213.626,30.2714 245.5,20C 350.763,-10.5578 449.429,3.60883 541.5,62.5 Z"/></g>
<g><path style="opacity:0.1" fill="#828282" d="M 151.5,60.5 C 151.389,61.1174 151.056,61.6174 150.5,62C 152.708,62.1909 154.708,62.6909 156.5,63.5C 60.1195,132.238 10.4528,226.238 7.5,345.5C 10.2015,463.249 58.5349,556.916 152.5,626.5C 152.281,627.675 152.614,628.675 153.5,629.5C 244.911,689.823 343.578,705.323 449.5,676C 480.671,666.079 510.004,652.412 537.5,635C 538.38,633.644 538.714,632.144 538.5,630.5C 546.876,625.637 554.876,620.137 562.5,614C 645.881,544.56 688.881,455.226 691.5,346C 687.554,226.586 637.554,132.086 541.5,62.5C 543.199,62.6602 544.866,62.4935 546.5,62C 545.944,61.6174 545.611,61.1174 545.5,60.5C 600.958,97.8012 642.125,147.134 669,208.5C 684.49,245.128 693.99,283.128 697.5,322.5C 697.5,339.833 697.5,357.167 697.5,374.5C 684.785,496.162 626.452,588.662 522.5,652C 476.394,677.982 427.061,693.149 374.5,697.5C 357.167,697.5 339.833,697.5 322.5,697.5C 200.838,684.785 108.338,626.452 45,522.5C 19.0179,476.394 3.85124,427.061 -0.5,374.5C -0.5,357.167 -0.5,339.833 -0.5,322.5C 9.97832,215.349 57.9783,129.516 143.5,65C 146.059,63.2226 148.726,61.7226 151.5,60.5 Z"/></g>
<g><path style="opacity:1" fill="#e6a689" d="M 398.5,514.5 C 398.5,515.167 398.5,515.833 398.5,516.5C 363.926,528.308 329.259,528.475 294.5,517C 293.289,516.107 293.289,515.274 294.5,514.5C 329.153,526.427 363.82,526.427 398.5,514.5 Z"/></g>
<g><path style="opacity:1" fill="#44403f" d="M 499.5,398.5 C 497.285,405.261 494.285,411.595 490.5,417.5C 492.583,411.336 493.917,405.003 494.5,398.5C 496.167,398.5 497.833,398.5 499.5,398.5 Z"/></g>
<g><path style="opacity:1" fill="#464240" d="M 192.5,398.5 C 194.167,398.5 195.833,398.5 197.5,398.5C 197.882,405.362 199.216,412.028 201.5,418.5C 197.989,412.139 194.989,405.472 192.5,398.5 Z"/></g>
<g><path style="opacity:1" fill="#fcb696" d="M 273.5,274.5 C 273.859,276.371 274.859,277.871 276.5,279C 320.665,310.478 369.331,319.811 422.5,307C 424.437,306.878 425.77,306.045 426.5,304.5C 442.369,300.452 458.036,295.952 473.5,291C 484.732,307.529 491.732,325.696 494.5,345.5C 497.32,345.248 499.986,345.748 502.5,347C 505.465,349.79 507.798,352.957 509.5,356.5C 510.49,361.445 511.157,366.445 511.5,371.5C 511.725,382.531 507.725,391.531 499.5,398.5C 497.833,398.5 496.167,398.5 494.5,398.5C 493.917,405.003 492.583,411.336 490.5,417.5C 474.17,463.495 443.503,495.828 398.5,514.5C 363.82,526.427 329.153,526.427 294.5,514.5C 293.289,515.274 293.289,516.107 294.5,517C 329.259,528.475 363.926,528.308 398.5,516.5C 398.5,530.833 398.5,545.167 398.5,559.5C 397.566,560.568 397.232,561.901 397.5,563.5C 391.751,591.915 374.418,607.248 345.5,609.5C 322.714,608.701 306.547,598.034 297,577.5C 295.203,572.977 294.036,568.31 293.5,563.5C 293.768,561.901 293.434,560.568 292.5,559.5C 292.833,544.152 292.499,528.819 291.5,513.5C 247.082,495.417 217.082,463.75 201.5,418.5C 199.216,412.028 197.882,405.362 197.5,398.5C 195.833,398.5 194.167,398.5 192.5,398.5C 187.954,396.107 184.788,392.441 183,387.5C 180.299,377.954 179.799,368.287 181.5,358.5C 183.023,353.983 185.689,350.15 189.5,347C 191.677,345.798 194.011,345.298 196.5,345.5C 202.869,312.657 218.036,284.657 242,261.5C 250.945,269.431 261.445,273.764 273.5,274.5 Z"/></g>
<g><path style="opacity:1" fill="#333333" d="M 509.5,356.5 C 507.798,352.957 505.465,349.79 502.5,347C 499.986,345.748 497.32,345.248 494.5,345.5C 491.732,325.696 484.732,307.529 473.5,291C 458.036,295.952 442.369,300.452 426.5,304.5C 393.016,311.656 359.683,311.156 326.5,303C 307.021,296.598 289.355,287.098 273.5,274.5C 261.445,273.764 250.945,269.431 242,261.5C 218.036,284.657 202.869,312.657 196.5,345.5C 194.011,345.298 191.677,345.798 189.5,347C 185.689,350.15 183.023,353.983 181.5,358.5C 176.885,298.635 197.218,249.302 242.5,210.5C 252.359,193.141 266.025,179.641 283.5,170C 301.148,161.51 318.481,152.51 335.5,143C 345.856,136.817 354.856,128.983 362.5,119.5C 367.752,130.206 365.419,139.039 355.5,146C 361.167,146.667 366.833,146.667 372.5,146C 390.921,145.536 406.421,138.702 419,125.5C 425.547,142.419 423.047,157.919 411.5,172C 417.617,172.823 423.617,174.157 429.5,176C 448.575,183.326 457.741,197.16 457,217.5C 496.935,255.369 514.435,301.702 509.5,356.5 Z"/></g>
<g><path style="opacity:1" fill="#d89d82" d="M 273.5,274.5 C 289.355,287.098 307.021,296.598 326.5,303C 359.683,311.156 393.016,311.656 426.5,304.5C 425.77,306.045 424.437,306.878 422.5,307C 369.331,319.811 320.665,310.478 276.5,279C 274.859,277.871 273.859,276.371 273.5,274.5 Z"/></g>
<g><path style="opacity:1" fill="#9fc8f1" d="M 209.5,560.5 C 236.995,559.502 264.662,559.169 292.5,559.5C 293.434,560.568 293.768,561.901 293.5,563.5C 292.596,562.791 292.263,561.791 292.5,560.5C 264.833,560.5 237.167,560.5 209.5,560.5 Z"/></g>
<g><path style="opacity:1" fill="#9fc8f1" d="M 398.5,559.5 C 425.835,559.333 453.169,559.5 480.5,560C 482.058,560.21 483.391,560.71 484.5,561.5C 455.854,560.541 427.188,560.208 398.5,560.5C 398.737,561.791 398.404,562.791 397.5,563.5C 397.232,561.901 397.566,560.568 398.5,559.5 Z"/></g>
<g><path style="opacity:1" fill="#5499fe" d="M 209.5,560.5 C 237.167,560.5 264.833,560.5 292.5,560.5C 292.263,561.791 292.596,562.791 293.5,563.5C 294.036,568.31 295.203,572.977 297,577.5C 306.547,598.034 322.714,608.701 345.5,609.5C 374.418,607.248 391.751,591.915 397.5,563.5C 398.404,562.791 398.737,561.791 398.5,560.5C 427.188,560.208 455.854,560.541 484.5,561.5C 492.375,564.439 499.708,568.439 506.5,573.5C 509.5,577.167 512.833,580.5 516.5,583.5C 526.289,598.075 533.623,613.742 538.5,630.5C 538.714,632.144 538.38,633.644 537.5,635C 510.004,652.412 480.671,666.079 449.5,676C 343.578,705.323 244.911,689.823 153.5,629.5C 152.614,628.675 152.281,627.675 152.5,626.5C 154.868,619.571 157.368,612.571 160,605.5C 165.736,591.665 174.569,580.332 186.5,571.5C 188.389,570.396 190.055,569.063 191.5,567.5C 194.485,566.674 197.151,565.341 199.5,563.5C 202.907,562.664 206.241,561.664 209.5,560.5 Z"/></g>
<g><path style="opacity:1" fill="#aacdf4" d="M 199.5,563.5 C 197.151,565.341 194.485,566.674 191.5,567.5C 193.579,565.127 196.246,563.794 199.5,563.5 Z"/></g>
<g><path style="opacity:1" fill="#a9ccf4" d="M 191.5,567.5 C 190.055,569.063 188.389,570.396 186.5,571.5C 187.129,569.003 188.796,567.67 191.5,567.5 Z"/></g>
<g><path style="opacity:1" fill="#a9cdf4" d="M 506.5,573.5 C 510.833,575.833 514.167,579.167 516.5,583.5C 512.833,580.5 509.5,577.167 506.5,573.5 Z"/></g>
</svg>
